<svg width="285" height="100" viewBox="0 0 285 100" fill="none" xmlns="http://www.w3.org/2000/svg">
<g clip-path="url(#clip0_142_53)">
<rect x="1.47273" y="2.20002" width="95.2364" height="95.2364" rx="8.34546" fill="#FF6600" stroke="#004D00" stroke-width="2.94545"/>
<path d="M35.7265 60.2286C24.7975 60.2286 18.1895 62.4783 14.3652 60.2286C19.0959 60.681 23.3072 59.7318 22.8104 58.2415L20.3265 54.2673C22.3136 56.2544 29.0201 60.2286 33.491 57.2479C33.8907 56.7103 34.4702 55.9754 33.9878 54.2673C30.8929 48.8966 29.5347 48.1439 27.033 46.3189C29.8952 46.1995 32.9352 47.1877 37.962 55.7576C40.7943 57.944 45.1652 58.9866 46.6773 58.2415C49.3878 55.7576 48.1458 51.2867 45.9104 49.7963C40.6118 46.7738 39.9495 44.9095 41.9362 41.3512C42.7609 46.1676 44.0551 47.2294 47.1523 47.5609C46.0976 43.9065 46.9674 42.7097 48.1458 40.3576C47.7526 44.7026 48.4211 47.0973 51.3749 51.2867C54.8044 49.8728 56.0027 49.0496 56.3426 46.3189C56.6825 43.5882 56.6648 42.0895 56.0942 38.6189C55.5974 36.6318 54.429 35.2884 53.362 33.1544C55.2446 33.9664 56.2198 34.7133 57.5845 37.377C58.7511 34.2152 59.9741 33.7167 62.3039 33.1544C60.0114 36.3257 59.2646 37.5516 59.0749 38.6189C58.7197 42.7007 58.8107 43.8786 59.0749 45.5738C60.8264 45.4867 62.3251 43.8723 65.2845 40.1092C65.2845 47.0641 51.6951 52.2802 51.3749 57.2479C51.0221 62.7201 55.3491 69.9157 56.0942 67.6802C56.8394 65.4447 64.7878 56.7512 64.7878 56.7512C66.2868 51.4538 68.8821 50.1071 74.9716 49.0512C70.7912 51.1943 69.0481 52.6429 67.2716 55.7576C79.0681 53.5458 81.3332 55.0816 84.0739 56.9399L84.1619 56.9995C75.7633 56.2366 72.3514 56.7035 67.2716 58.2415C58.4545 65.8115 56.4853 71.4337 57.5845 83.5769C54.6039 106.925 27.7781 113.383 56.3426 135.241C49.5833 136.709 45.6305 137.137 37.4652 135.241C14.3652 112.39 51.4972 94.506 52.12 83.5769C54.3555 69.9157 49.1394 62.2157 35.7265 60.2286Z" fill="#004D00"/>
<path d="M14.6586 62.0056C13.1007 62.1017 12.3799 62.8225 11.3908 64.12C11.8768 62.5892 12.4686 62.541 13.8207 61.3809C11.4324 62.4409 10.026 62.3823 10.2375 66.4267C13.9056 65.7874 14.7026 64.722 14.6586 62.0056Z" fill="white"/>
<path d="M12.1 60.9675C11.0792 59.7868 10.0689 59.6505 8.43742 59.6504C9.94955 59.1089 10.3465 59.5504 12.0889 59.9224C9.79803 58.6656 8.99204 57.5116 5.90376 60.1315C8.63586 62.6613 9.96632 62.6492 12.1 60.9675Z" fill="white"/>
<path d="M13.0419 59.362C13.2706 57.818 12.7147 56.9635 11.6503 55.7271C13.0472 56.5197 12.9717 57.1086 13.8267 58.6717C13.2843 56.1156 13.6329 54.7519 9.63253 54.121C9.49809 57.842 10.3754 58.8424 13.0419 59.362Z" fill="white"/>
<path d="M19.58 56.2387C18.5073 55.1464 17.5099 55.0758 15.9129 55.1772C17.3594 54.5531 17.7755 54.9605 19.5042 55.2164C17.1835 54.1285 16.3228 53.049 13.4626 55.8056C16.2943 58.1121 17.5959 58.0176 19.58 56.2387Z" fill="white"/>
<path d="M18.7078 53.6752C18.9263 52.16 18.3778 51.3239 17.329 50.1152C18.7023 50.8873 18.6304 51.4652 19.4749 52.9952C18.9333 50.4901 19.2701 49.1512 15.3439 48.5475C15.2261 52.1978 16.0903 53.1756 18.7078 53.6752Z" fill="white"/>
<path d="M20.5022 53.3402C21.793 52.517 22.0687 51.5559 22.3004 49.9725C22.6113 51.5169 22.1265 51.8395 21.518 53.4778C23.063 51.4328 24.2974 50.8144 22.1931 47.4452C19.3501 49.7377 19.173 51.0306 20.5022 53.3402Z" fill="white"/>
<path d="M26.0565 47.6688C25.1059 46.5006 24.1354 46.3401 22.5618 46.2931C24.0359 45.8143 24.4061 46.2515 26.0759 46.6605C23.9025 45.3824 23.1583 44.2462 20.1043 46.6842C22.6666 49.2028 23.9502 49.2294 26.0565 47.6688Z" fill="white"/>
<path d="M25.4322 45.0783C25.785 43.6141 25.3244 42.745 24.4078 41.4651C25.6822 42.3471 25.5589 42.9066 26.2459 44.4825C25.9448 41.9792 26.3973 40.6985 22.607 39.7477C22.1573 43.3123 22.9142 44.3492 25.4322 45.0783Z" fill="white"/>
<path d="M27.2182 44.9139C28.558 44.2259 28.916 43.3097 29.288 41.78C29.451 43.3212 28.9466 43.5928 28.2006 45.1417C29.9013 43.2802 31.167 42.7875 29.4144 39.2947C26.4197 41.2798 26.1278 42.53 27.2182 44.9139Z" fill="white"/>
<path d="M39.2817 41.6072C38.812 40.1699 37.9605 39.6697 36.503 39.0584C38.0567 39.1411 38.246 39.6842 39.6633 40.6694C38.0875 38.6883 37.7997 37.3554 34.0592 38.539C35.5523 41.8227 36.7455 42.3103 39.2817 41.6072Z" fill="white"/>
<path d="M39.631 38.9555C40.4893 37.7106 40.371 36.7302 39.9735 35.2004C40.8497 36.4863 40.5325 36.9661 40.6082 38.6905C41.2284 36.2362 42.1141 35.1994 38.9052 32.942C37.1988 36.1201 37.5343 37.3646 39.631 38.9555Z" fill="white"/>
<path d="M41.3677 39.4455C42.8711 39.2837 43.5369 38.5543 44.4368 37.255C44.034 38.7579 43.4635 38.8306 42.2061 40.0131C44.4707 38.8818 45.8343 38.8764 45.4511 34.9718C41.9294 35.7524 41.2053 36.8186 41.3677 39.4455Z" fill="white"/>
<path d="M53.1942 34.5598C52.0625 33.9604 51.2495 34.1566 50.0019 34.6416C50.9972 33.7779 51.432 33.9975 52.875 33.764C50.7495 33.484 49.7901 32.8412 48.2075 35.7627C51.0488 36.8849 52.0626 36.4801 53.1942 34.5598Z" fill="white"/>
<path d="M51.8461 32.7372C51.6367 31.4738 50.9879 30.9461 49.8458 30.2479C51.1361 30.5159 51.225 30.9949 52.2855 32.0009C51.2197 30.1408 51.1493 28.9881 47.8664 29.5005C48.6964 32.4405 49.6329 33.0013 51.8461 32.7372Z" fill="white"/>
<path d="M53.1925 32.0155C54.0132 31.0326 53.9898 30.1965 53.7737 28.8755C54.4125 30.0281 54.1076 30.408 54.0372 31.8681C54.7513 29.8467 55.5789 29.0413 53.0486 26.8878C51.3622 29.435 51.5482 30.5107 53.1925 32.0155Z" fill="white"/>
<path d="M61.0393 32.5267C62.0613 31.7106 62.2085 30.8692 62.262 29.5031C62.6659 30.7869 62.2832 31.1049 61.9147 32.5516C63.042 30.6746 64.0346 30.0375 61.9421 27.366C59.7345 29.5707 59.7011 30.6851 61.0393 32.5267Z" fill="white"/>
<path d="M63.2947 32.0068C64.5633 32.3249 65.3217 31.9319 66.4405 31.1463C65.6643 32.2457 65.1795 32.1342 63.8055 32.7181C65.9817 32.4768 67.0901 32.88 67.9463 29.5963C64.8546 29.1771 63.948 29.8261 63.2947 32.0068Z" fill="white"/>
<path d="M63.4219 33.5608C64.0086 34.7297 64.8012 35.048 66.1266 35.3832C64.7869 35.5124 64.5551 35.0722 63.2161 34.412C64.8189 35.9037 65.2366 37.0068 68.2836 35.513C66.584 32.8966 65.5007 32.633 63.4219 33.5608Z" fill="white"/>
<path d="M74.0899 47.6215C75.3004 47.3971 75.7957 46.7637 76.4458 45.6532C76.2119 46.8983 75.7532 46.9926 74.8057 48.0304C76.5741 46.9718 77.6807 46.883 77.128 43.7368C74.3173 44.5885 73.7953 45.499 74.0899 47.6215Z" fill="white"/>
<path d="M76.1914 48.1888C77.1037 49.0154 77.9077 49.0254 79.185 48.8693C78.053 49.438 77.6999 49.1304 76.3001 49.0059C78.2141 49.7706 78.9556 50.5969 81.1226 48.25C78.7414 46.531 77.7009 46.6678 76.1914 48.1888Z" fill="white"/>
<path d="M75.6107 49.536C75.5794 50.7667 76.0965 51.3825 77.0482 52.2486C75.8786 51.7618 75.8814 51.2936 75.0624 50.1516C75.7317 52.1009 75.5893 53.202 78.7817 53.3129C78.5307 50.3867 77.7481 49.6876 75.6107 49.536Z" fill="white"/>
<path d="M84.386 55.0459C85.5594 55.4182 86.2947 55.0928 87.3914 54.4195C86.5985 55.4076 86.1494 55.2747 84.8247 55.7437C86.8833 55.643 87.9013 56.0861 88.8959 53.0505C86.0153 52.4776 85.1261 53.0349 84.386 55.0459Z" fill="white"/>
<path d="M85.9743 56.5369C86.3896 57.6959 87.0941 58.0834 88.2943 58.5474C87.0279 58.5158 86.8613 58.0781 85.6853 57.3089C87.0133 58.8851 87.2781 59.9633 90.2952 58.914C89.0046 56.2759 88.0223 55.9064 85.9743 56.5369Z" fill="white"/>
<path d="M84.8276 57.4508C84.2202 58.5217 84.3862 59.3085 84.8177 60.5208C84.0154 59.5404 84.2384 59.1287 84.0539 57.7355C83.726 59.7703 83.0817 60.6745 85.8455 62.2763C87.0025 59.5769 86.6416 58.5915 84.8276 57.4508Z" fill="white"/>
<rect x="1.47273" y="2.20002" width="95.2364" height="95.2364" rx="8.34546" stroke="#004D00" stroke-width="2.94545"/>
</g>
<line x1="107.018" y1="0.727295" x2="107.018" y2="98.9091" stroke="#004D00" stroke-width="1.96364"/>
<path d="M114.017 12.4062V10.7096H123.096V12.4062H119.53V21.9259H117.567V12.4062H114.017ZM124.35 21.9259V10.7096H126.313V15.171H131.419V10.7096H133.382V21.9259H131.419V16.8676H126.313V21.9259H124.35ZM135.734 21.9259V10.7096H143.808V12.4062H137.697V15.3438H143.353V16.9461H137.697V20.2293H143.918V21.9259H135.734Z" fill="#004D00"/>
<path d="M115.72 44.635V25.7075H124.256C128.975 25.7075 130.804 28.703 130.804 31.7781C130.804 34.8532 128.975 37.8487 124.256 37.8487H119.882V44.635H115.72ZM119.882 28.9416V34.6146H123.116C125.051 34.6146 126.774 34.1904 126.774 31.7781C126.774 29.3658 125.051 28.9416 123.116 28.9416H119.882ZM129.419 44.635L136.603 25.7075H140.871L147.949 44.635H143.628L142.197 40.4201H135.119L133.634 44.635H129.419ZM138.671 30.3731L136.206 37.3185H141.11L138.724 30.3731H138.671ZM165.646 25.7075V37.4776C165.646 42.5938 162.624 45.0857 157.56 45.0857C152.471 45.0857 149.502 42.6203 149.502 37.4776V25.7075H153.664V37.4776C153.664 39.5453 154.194 41.5865 157.56 41.5865C160.529 41.5865 161.484 40.2875 161.484 37.4776V25.7075H165.646ZM169.23 44.635V25.7075H173.392V41.1358H182.617V44.635H169.23ZM114.527 66.3524H118.556C118.556 68.8707 120.518 69.8516 122.745 69.8516C124.203 69.8516 126.43 69.4274 126.43 67.4922C126.43 65.451 123.593 65.1064 120.81 64.3642C118 63.6219 115.163 62.535 115.163 58.9828C115.163 55.1125 118.822 53.2569 122.241 53.2569C126.191 53.2569 129.823 54.98 129.823 59.354H125.793C125.661 57.0742 124.044 56.491 122.056 56.491C120.73 56.491 119.193 57.0477 119.193 58.6382C119.193 60.0962 120.094 60.2818 124.839 61.5012C126.218 61.8458 130.459 62.7206 130.459 67.0151C130.459 70.4878 127.729 73.0857 122.586 73.0857C118.397 73.0857 114.474 71.018 114.527 66.3524ZM132.935 72.635V53.7075H138.794L143.221 66.7235H143.274L147.462 53.7075H153.321V72.635H149.424V59.2214H149.371L144.732 72.635H141.524L136.885 59.354H136.832V72.635H132.935ZM156.985 72.635V53.7075H161.147V72.635H156.985ZM168.992 72.635V57.2067H163.319V53.7075H178.827V57.2067H173.154V72.635H168.992ZM181.009 72.635V53.7075H185.171V60.971H192.832V53.7075H196.994V72.635H192.832V64.4702H185.171V72.635H181.009Z" fill="#004D00"/>
<path d="M115.616 96.7106V78.8606H128.166V82.1606H119.541V86.2856H127.016V89.3356H119.541V96.7106H115.616ZM129.66 87.8606C129.66 82.5606 132.91 78.4356 138.435 78.4356C143.96 78.4356 147.21 82.5606 147.21 87.8606C147.21 93.0106 143.96 97.1356 138.435 97.1356C132.91 97.1356 129.66 93.0106 129.66 87.8606ZM133.585 87.8606C133.585 90.8356 134.91 93.8356 138.435 93.8356C141.96 93.8356 143.285 90.8356 143.285 87.8606C143.285 84.7356 141.96 81.7356 138.435 81.7356C134.91 81.7356 133.585 84.7356 133.585 87.8606ZM165.043 78.8606V89.9606C165.043 94.7856 162.193 97.1356 157.418 97.1356C152.618 97.1356 149.818 94.8106 149.818 89.9606V78.8606H153.743V89.9606C153.743 91.9106 154.243 93.8356 157.418 93.8356C160.218 93.8356 161.118 92.6106 161.118 89.9606V78.8606H165.043ZM168.423 96.7106V78.8606H172.323L179.773 90.8356H179.823V78.8606H183.498V96.7106H179.573L172.148 84.7606H172.098V96.7106H168.423ZM186.954 96.7106V78.8606H194.654C199.279 78.8606 202.754 81.7606 202.754 87.6856C202.754 92.8606 200.104 96.7106 194.654 96.7106H186.954ZM190.879 82.1606V93.4106H194.379C196.654 93.4106 198.829 92.0106 198.829 88.0606C198.829 84.4606 197.579 82.1606 193.679 82.1606H190.879ZM203.584 96.7106L210.359 78.8606H214.384L221.059 96.7106H216.984L215.634 92.7356H208.959L207.559 96.7106H203.584ZM212.309 83.2606L209.984 89.8106H214.609L212.359 83.2606H212.309ZM224.693 96.7106V82.1606H219.343V78.8606H233.968V82.1606H228.618V96.7106H224.693ZM236.026 96.7106V78.8606H239.951V96.7106H236.026ZM242.624 87.8606C242.624 82.5606 245.874 78.4356 251.399 78.4356C256.924 78.4356 260.174 82.5606 260.174 87.8606C260.174 93.0106 256.924 97.1356 251.399 97.1356C245.874 97.1356 242.624 93.0106 242.624 87.8606ZM246.549 87.8606C246.549 90.8356 247.874 93.8356 251.399 93.8356C254.924 93.8356 256.249 90.8356 256.249 87.8606C256.249 84.7356 254.924 81.7356 251.399 81.7356C247.874 81.7356 246.549 84.7356 246.549 87.8606ZM262.857 96.7106V78.8606H266.757L274.207 90.8356H274.257V78.8606H277.932V96.7106H274.007L266.582 84.7606H266.532V96.7106H262.857Z" fill="#FF6600"/>
<defs>
<clipPath id="clip0_142_53">
<rect width="98.1818" height="98.1818" fill="white" transform="translate(0 0.727295)"/>
</clipPath>
</defs>
</svg>
