<svg width="162" height="45" viewBox="0 0 162 45" fill="none" xmlns="http://www.w3.org/2000/svg">
<path d="M0 22.5C0 10.0736 10.0736 0 22.5 0H94.4814C101.335 0 107.868 2.90424 112.46 7.99252L117.347 13.4074C122.544 19.1667 131.167 20.2721 137.649 16.0102L142.265 12.9754C150.735 7.40663 162 13.482 162 23.6185C162 33.2697 151.685 39.4148 143.198 34.8195L136.978 31.4517C130.633 28.0165 122.81 28.9736 117.481 33.8368L112.706 38.1939C107.908 42.5725 101.646 45 95.1503 45H22.5C10.0736 45 0 34.9264 0 22.5Z" fill="#FF6600"/>
<path d="M20.02 18.6324C20.908 18.6324 21.684 18.8124 22.348 19.1724C23.02 19.5244 23.536 20.0204 23.896 20.6604C24.256 21.3004 24.436 22.0324 24.436 22.8564C24.436 23.6724 24.252 24.4004 23.884 25.0404C23.524 25.6804 23.008 26.1844 22.336 26.5524C21.672 26.9124 20.9 27.0924 20.02 27.0924H16.672V18.6324H20.02ZM19.84 25.0164C20.528 25.0164 21.068 24.8284 21.46 24.4524C21.852 24.0764 22.048 23.5444 22.048 22.8564C22.048 22.1604 21.852 21.6244 21.46 21.2484C21.068 20.8644 20.528 20.6724 19.84 20.6724H19.024V25.0164H19.84ZM29.5522 27.1764C28.7602 27.1764 28.0322 26.9924 27.3682 26.6244C26.7042 26.2484 26.1762 25.7324 25.7842 25.0764C25.4002 24.4124 25.2082 23.6644 25.2082 22.8324C25.2082 22.0004 25.4002 21.2564 25.7842 20.6004C26.1762 19.9364 26.7042 19.4204 27.3682 19.0524C28.0322 18.6844 28.7602 18.5004 29.5522 18.5004C30.3522 18.5004 31.0802 18.6844 31.7362 19.0524C32.4002 19.4204 32.9242 19.9364 33.3082 20.6004C33.6922 21.2564 33.8842 22.0004 33.8842 22.8324C33.8842 23.6644 33.6922 24.4124 33.3082 25.0764C32.9242 25.7324 32.4002 26.2484 31.7362 26.6244C31.0722 26.9924 30.3442 27.1764 29.5522 27.1764ZM29.5522 24.9924C30.1522 24.9924 30.6242 24.7964 30.9682 24.4044C31.3202 24.0124 31.4962 23.4884 31.4962 22.8324C31.4962 22.1604 31.3202 21.6324 30.9682 21.2484C30.6242 20.8564 30.1522 20.6604 29.5522 20.6604C28.9442 20.6604 28.4682 20.8564 28.1242 21.2484C27.7802 21.6324 27.6082 22.1604 27.6082 22.8324C27.6082 23.4964 27.7802 24.0244 28.1242 24.4164C28.4682 24.8004 28.9442 24.9924 29.5522 24.9924ZM42.7775 27.0924H40.4255L37.2935 22.3644V27.0924H34.9415V18.6324H37.2935L40.4255 23.4204V18.6324H42.7775V27.0924ZM49.4693 25.7124H46.4693L46.0133 27.0924H43.5413L46.6253 18.6324H49.3373L52.4093 27.0924H49.9253L49.4693 25.7124ZM48.8813 23.9124L47.9693 21.1764L47.0693 23.9124H48.8813ZM59.5479 18.6324V20.5044H57.2919V27.0924H54.9399V20.5044H52.7079V18.6324H59.5479ZM62.7701 20.5164V21.8964H65.4701V23.6844H62.7701V25.2084H65.8301V27.0924H60.4181V18.6324H65.8301V20.5164H62.7701ZM77.1252 27.0924H74.7732L71.6412 22.3644V27.0924H69.2892V18.6324H71.6412L74.7732 23.4204V18.6324H77.1252V27.0924ZM82.521 27.1764C81.729 27.1764 81.001 26.9924 80.337 26.6244C79.673 26.2484 79.145 25.7324 78.753 25.0764C78.369 24.4124 78.177 23.6644 78.177 22.8324C78.177 22.0004 78.369 21.2564 78.753 20.6004C79.145 19.9364 79.673 19.4204 80.337 19.0524C81.001 18.6844 81.729 18.5004 82.521 18.5004C83.321 18.5004 84.049 18.6844 84.705 19.0524C85.369 19.4204 85.893 19.9364 86.277 20.6004C86.661 21.2564 86.853 22.0004 86.853 22.8324C86.853 23.6644 86.661 24.4124 86.277 25.0764C85.893 25.7324 85.369 26.2484 84.705 26.6244C84.041 26.9924 83.313 27.1764 82.521 27.1764ZM82.521 24.9924C83.121 24.9924 83.593 24.7964 83.937 24.4044C84.289 24.0124 84.465 23.4884 84.465 22.8324C84.465 22.1604 84.289 21.6324 83.937 21.2484C83.593 20.8564 83.121 20.6604 82.521 20.6604C81.913 20.6604 81.437 20.8564 81.093 21.2484C80.749 21.6324 80.577 22.1604 80.577 22.8324C80.577 23.4964 80.749 24.0244 81.093 24.4164C81.437 24.8004 81.913 24.9924 82.521 24.9924ZM99.8263 18.6324L97.7503 27.0924H94.8583L93.6943 21.9084L92.5063 27.0924H89.6143L87.5623 18.6324H90.1063L91.0903 24.4164L92.4223 18.6324H95.0023L96.2983 24.3684L97.2823 18.6324H99.8263Z" fill="white"/>
<path d="M149 30.2591C152.682 30.2591 155.667 27.2744 155.667 23.5924C155.667 19.9104 152.682 16.9258 149 16.9258C145.318 16.9258 142.333 19.9104 142.333 23.5924C142.333 27.2744 145.318 30.2591 149 30.2591Z" stroke="white" stroke-linejoin="round"/>
<path d="M152 22.5924L149 25.5924L146 22.5924" stroke="white" stroke-linecap="round" stroke-linejoin="round"/>
</svg>
